<?xml version="1.0" standalone="no"?>
<!DOCTYPE svg PUBLIC "-//W3C//DTD SVG 20010904//EN"
 "http://www.w3.org/TR/2001/REC-SVG-20010904/DTD/svg10.dtd">
<svg version="1.0" xmlns="http://www.w3.org/2000/svg"
 width="768.000000pt" height="768.000000pt" viewBox="0 0 768.000000 768.000000"
 preserveAspectRatio="xMidYMid meet">

<g transform="translate(0.000000,768.000000) scale(0.100000,-0.100000)"
fill="#000000" stroke="none">
<path d="M0 3840 l0 -3840 3840 0 3840 0 0 3840 0 3840 -3840 0 -3840 0 0
-3840z m2083 1925 c38 -13 99 -42 136 -64 37 -23 72 -41 79 -41 16 0 32 34 32
69 0 29 3 31 35 31 l35 0 0 -605 0 -605 -34 0 -34 0 -6 63 c-3 34 -8 98 -11
142 -28 369 -144 765 -262 896 -45 49 -81 69 -128 69 -77 0 -123 -54 -145
-169 -6 -35 -10 -641 -10 -1741 0 -1849 -4 -1739 58 -1803 39 -41 74 -57 128
-57 68 0 122 35 160 102 l29 53 3 808 3 807 -96 0 -95 0 0 35 0 35 320 0 320
0 0 -35 0 -35 -75 0 -75 0 0 -905 0 -905 -35 0 c-25 0 -37 5 -41 18 -31 96
-48 100 -152 39 -120 -70 -161 -81 -282 -81 -253 2 -386 112 -446 369 -18 76
-19 150 -19 1625 0 1471 1 1548 18 1605 41 132 108 213 220 265 112 53 243 58
370 15z m1842 -17 c2 -7 96 -845 210 -1863 113 -1017 208 -1860 210 -1872 5
-22 11 -23 85 -23 l80 0 0 -35 0 -35 -315 0 -315 0 0 35 0 34 83 3 82 3 -85
750 -85 750 -192 3 -193 2 -4 -22 c-11 -51 -146 -1297 -146 -1345 0 -41 5 -58
27 -84 31 -36 78 -59 123 -59 28 0 30 -3 30 -35 l0 -35 -241 0 -240 0 3 32 c2
27 8 34 28 36 110 12 150 42 174 135 13 47 406 3560 406 3623 0 19 268 21 275
2z m1901 -3 c167 -29 277 -102 337 -224 l32 -66 0 -840 0 -840 -28 -56 c-33
-67 -109 -142 -175 -171 -86 -38 -146 -49 -309 -55 l-163 -6 0 -753 0 -754
120 0 120 0 0 -30 0 -30 -360 0 -360 0 0 30 0 30 85 0 85 0 0 1860 0 1860 -85
0 c-82 0 -85 1 -85 23 0 13 3 27 7 30 3 4 160 7 348 7 263 0 363 -4 431 -15z"/>
<path d="M3586 4379 c-50 -439 -87 -801 -84 -804 3 -3 86 -4 184 -3 l180 3
-91 797 c-50 439 -93 800 -96 802 -2 2 -44 -355 -93 -795z"/>
<path d="M5520 4636 l0 -1066 108 0 c122 0 170 16 214 68 54 65 53 38 53 992
0 981 4 914 -66 995 -46 52 -87 67 -206 73 l-103 5 0 -1067z"/>
</g>
</svg>
